<?xml version="1.0" encoding="utf-8"?><!DOCTYPE svg PUBLIC "-//W3C//DTD SVG 1.1//EN" "http://www.w3.org/Graphics/SVG/1.1/DTD/svg11.dtd"><svg xmlns="http://www.w3.org/2000/svg" xmlns:xlink="http://www.w3.org/1999/xlink" style="display:none"><symbol viewBox="0 0 11 28" id="angle-left" xmlns="http://www.w3.org/2000/svg"><path d="M9.797 8.5a.54.54 0 0 1-.156.359L3.5 15l6.141 6.141c.094.094.156.234.156.359s-.063.266-.156.359l-.781.781c-.094.094-.234.156-.359.156s-.266-.063-.359-.156L.861 15.359C.767 15.265.705 15.125.705 15s.063-.266.156-.359L8.142 7.36c.094-.094.234-.156.359-.156s.266.063.359.156l.781.781a.508.508 0 0 1 .156.359z"/></symbol><symbol viewBox="0 0 9 28" id="angle-right" xmlns="http://www.w3.org/2000/svg"><path d="M9.297 15a.54.54 0 0 1-.156.359L1.86 22.64c-.094.094-.234.156-.359.156s-.266-.063-.359-.156l-.781-.781a.508.508 0 0 1-.156-.359.54.54 0 0 1 .156-.359L6.502 15 .361 8.859C.267 8.765.205 8.625.205 8.5s.063-.266.156-.359l.781-.781c.094-.094.234-.156.359-.156s.266.063.359.156l7.281 7.281a.536.536 0 0 1 .156.359z"/></symbol><symbol viewBox="0 0 24 28" id="check-circle" xmlns="http://www.w3.org/2000/svg"><path d="M20.062 11.469c0-.266-.094-.531-.281-.719l-1.422-1.406c-.187-.187-.438-.297-.703-.297s-.516.109-.703.297l-6.375 6.359-3.531-3.531c-.187-.187-.438-.297-.703-.297s-.516.109-.703.297l-1.422 1.406c-.187.187-.281.453-.281.719s.094.516.281.703l5.656 5.656c.187.187.453.297.703.297.266 0 .531-.109.719-.297l8.484-8.484a.981.981 0 0 0 .281-.703zM24 14c0 6.625-5.375 12-12 12S0 20.625 0 14 5.375 2 12 2s12 5.375 12 12z"/></symbol><symbol viewBox="0 0 26 28" id="download" xmlns="http://www.w3.org/2000/svg"><path d="M20 21c0-.547-.453-1-1-1s-1 .453-1 1 .453 1 1 1 1-.453 1-1zm4 0c0-.547-.453-1-1-1s-1 .453-1 1 .453 1 1 1 1-.453 1-1zm2-3.5v5a1.5 1.5 0 0 1-1.5 1.5h-23A1.5 1.5 0 0 1 0 22.5v-5A1.5 1.5 0 0 1 1.5 16h7.266l2.109 2.125c.578.562 1.328.875 2.125.875s1.547-.313 2.125-.875L17.25 16h7.25a1.5 1.5 0 0 1 1.5 1.5zm-5.078-8.891a.984.984 0 0 1-.219 1.094l-7 7c-.187.203-.453.297-.703.297s-.516-.094-.703-.297l-7-7a.984.984 0 0 1-.219-1.094C5.234 8.25 5.594 8 6 8h4V1c0-.547.453-1 1-1h4c.547 0 1 .453 1 1v7h4c.406 0 .766.25.922.609z"/></symbol><symbol viewBox="0 0 28 28" id="envelope-o" xmlns="http://www.w3.org/2000/svg"><path d="M26 23.5v-12a8.408 8.408 0 0 1-1.078 1.031c-2.234 1.719-4.484 3.469-6.656 5.281-1.172.984-2.625 2.188-4.25 2.188h-.031c-1.625 0-3.078-1.203-4.25-2.188-2.172-1.813-4.422-3.563-6.656-5.281A8.411 8.411 0 0 1 2.001 11.5v12c0 .266.234.5.5.5h23c.266 0 .5-.234.5-.5zm0-16.422C26 6.687 26.094 6 25.5 6h-23c-.266 0-.5.234-.5.5 0 1.781.891 3.328 2.297 4.438a980.43 980.43 0 0 1 6.266 4.953c.828.672 2.328 2.109 3.422 2.109h.031c1.094 0 2.594-1.437 3.422-2.109a946.207 946.207 0 0 1 6.266-4.953c1.016-.797 2.297-2.531 2.297-3.859zm2-.578v17c0 1.375-1.125 2.5-2.5 2.5h-23A2.507 2.507 0 0 1 0 23.5v-17C0 5.125 1.125 4 2.5 4h23C26.875 4 28 5.125 28 6.5z"/></symbol><symbol viewBox="0 0 16 28" id="facebook" xmlns="http://www.w3.org/2000/svg"><path d="M14.984.187v4.125h-2.453c-1.922 0-2.281.922-2.281 2.25v2.953h4.578l-.609 4.625H10.25v11.859H5.469V14.14H1.485V9.515h3.984V6.109C5.469 2.156 7.891 0 11.422 0c1.687 0 3.141.125 3.563.187z"/></symbol><symbol viewBox="0 0 24 28" id="globe" xmlns="http://www.w3.org/2000/svg"><path d="M12 2c6.625 0 12 5.375 12 12s-5.375 12-12 12S0 20.625 0 14 5.375 2 12 2zm4.281 8.141c-.125.094-.203.266-.359.297.078-.016.156-.297.203-.359.094-.109.219-.172.344-.234.266-.109.531-.141.812-.187.266-.063.594-.063.797.172-.047-.047.328-.375.375-.391.141-.078.375-.047.469-.187.031-.047.031-.344.031-.344-.266.031-.359-.219-.375-.438 0 .016-.031.063-.094.125.016-.234-.281-.063-.391-.094-.359-.094-.313-.344-.422-.609-.063-.141-.234-.187-.297-.328-.063-.094-.094-.297-.234-.313-.094-.016-.266.328-.297.313-.141-.078-.203.031-.313.094-.094.063-.172.031-.266.078.281-.094-.125-.25-.266-.219.219-.063.109-.297-.016-.406h.078c-.031-.141-.469-.266-.609-.359s-.891-.25-1.047-.156c-.187.109.047.422.047.578.016.187-.187.234-.187.391 0 .266.5.219.375.578-.078.219-.375.266-.5.438-.125.156.016.438.141.547.125.094-.219.25-.266.281-.266.125-.469-.266-.531-.5-.047-.172-.063-.375-.25-.469-.094-.031-.391-.078-.453.016-.094-.234-.422-.328-.641-.406-.313-.109-.578-.109-.906-.063.109-.016-.031-.5-.297-.422.078-.156.047-.328.078-.484a.887.887 0 0 1 .187-.359c.031-.063.375-.422.266-.438.266.031.562.047.781-.172.141-.141.203-.375.344-.531.203-.234.453.063.672.078.313.016.297-.328.125-.484.203.016.031-.359-.078-.406-.141-.047-.672.094-.391.203-.063-.031-.438.75-.656.359-.063-.078-.094-.406-.234-.422-.125 0-.203.141-.25.234.078-.203-.438-.344-.547-.359.234-.156.047-.328-.125-.422-.125-.078-.516-.141-.625-.016-.297.359.313.406.469.5.047.031.234.141.125.219-.094.047-.375.125-.406.187-.094.141.109.297-.031.438-.141-.141-.141-.375-.25-.531.141.172-.562.078-.547.078-.234 0-.609.156-.781-.078-.031-.063-.031-.422.063-.344-.141-.109-.234-.219-.328-.281a9.5 9.5 0 0 0-1.469.641.26.26 0 0 0 .187-.016c.125-.047.234-.125.359-.187.156-.063.484-.25.656-.109.016-.031.063-.063.078-.078.109.125.219.25.313.391-.125-.063-.328-.031-.469-.016-.109.031-.297.063-.344.187.047.078.109.203.078.281-.203-.141-.359-.375-.641-.406-.125 0-.25 0-.344.016a10.15 10.15 0 0 0-3.672 3.469.442.442 0 0 0 .187.125c.156.047 0 .5.297.266.094.078.109.187.047.297.016-.016.641.391.688.422.109.094.281.203.328.328.031.109-.063.234-.156.281-.016-.031-.25-.266-.281-.203-.047.078 0 .5.172.484-.25.016-.141.984-.203 1.172 0 .016.031.016.031.016-.047.187.109.922.422.844-.203.047.359.766.438.812.203.141.438.234.578.438.156.219.156.547.375.719-.063.187.328.406.313.672-.031.016-.047.016-.078.031.078.219.375.219.484.422.063.125 0 .422.203.359.031-.344-.203-.688-.375-.969-.094-.156-.187-.297-.266-.453-.078-.141-.094-.313-.156-.469.063.016.406.141.375.187-.125.313.5.859.672 1.062.047.047.406.516.219.516.203 0 .484.313.578.469.141.234.109.531.203.781.094.313.531.453.781.594.219.109.406.266.625.344.328.125.406.016.688-.031.406-.063.453.391.781.562.203.109.641.266.859.172-.094.031.328.672.359.719.141.187.406.281.562.469a.244.244 0 0 0 .109-.141c-.063.172.234.5.391.469.172-.031.219-.375.219-.5-.313.156-.594.031-.766-.281-.031-.078-.281-.516-.063-.516.297 0 .094-.234.063-.453s-.25-.359-.359-.547c-.094.187-.406.141-.5-.016 0 .047-.047.125-.047.187-.078 0-.156.016-.234-.016.031-.187.047-.422.094-.625.078-.281.594-.828-.078-.797-.234.016-.328.109-.406.313-.078.187-.047.359-.266.453-.141.063-.609.031-.75-.047-.297-.172-.5-.719-.5-1.031-.016-.422.203-.797 0-1.188.094-.078.187-.234.297-.313.094-.063.203.047.25-.141-.047-.031-.109-.094-.125-.094.234.109.672-.156.875 0 .125.094.266.125.344-.031.016-.047-.109-.234-.047-.359.047.266.219.313.453.141.094.094.344.063.516.156.172.109.203.281.406.047.125.187.141.187.187.375.047.172.141.609.297.688.328.203.25-.344.219-.531-.016-.016-.016-.531-.031-.531-.5-.109-.313-.5-.031-.766.047-.031.406-.156.562-.281.141-.125.313-.344.234-.547.078 0 .141-.063.172-.141-.047-.016-.234-.172-.266-.156.109-.063.094-.156.031-.25.156-.094.078-.266.234-.328.172.234.516-.031.344-.219.156-.219.516-.109.609-.313.234.063.063-.234.187-.406.109-.141.297-.141.438-.219 0 .016.391-.219.266-.234.266.031.797-.25.391-.484.063-.141-.141-.203-.281-.234.109-.031.25.031.344-.031.203-.141.063-.203-.109-.25-.219-.063-.5.078-.672.187zm-2.547 13.703a9.912 9.912 0 0 0 5.484-2.953c-.094-.094-.266-.063-.391-.125-.125-.047-.219-.094-.375-.125.031-.313-.313-.422-.531-.578-.203-.156-.328-.328-.625-.266-.031.016-.344.125-.281.187-.203-.172-.297-.266-.562-.344-.25-.078-.422-.391-.672-.109-.125.125-.063.313-.125.438-.203-.172.187-.375.031-.562-.187-.219-.516.141-.672.234-.094.078-.203.109-.266.203-.078.109-.109.25-.172.359-.047-.125-.313-.094-.328-.187.063.375.063.766.141 1.141.047.219 0 .578-.187.75s-.422.359-.453.625c-.031.187.016.359.187.406.016.234-.25.406-.234.656 0 .016.016.172.031.25z"/></symbol><symbol viewBox="0 0 1000 1000" id="headset" xmlns="http://www.w3.org/2000/svg"><path d="M477.15 61.4c-54.96 3.83-104.94 17.04-154.16 40.79-122.95 59.56-208.36 175.8-227.7 309.85-1.72 11.68-3.06 24.7-3.06 28.92 0 7.09-.77 8.04-10.92 14.75-6.13 4.02-16.66 13.02-23.55 19.92-36.96 37.54-54.77 94.22-45.2 144.2 13.21 68.55 67.02 121.41 135.96 133.47 26.81 4.79 42.32 1.72 54.2-10.34 5.94-6.32 8.43-10.73 9.96-18.58 1.53-7.08 2.11-49.6 1.72-137.5-.57-126.97-.57-127.35-4.79-135.2-5.55-10.34-15.89-19.34-25.28-21.83-7.47-1.92-7.47-1.92-6.51-10.15 1.92-14.36 12.06-51.51 18.96-69.32 34.28-86.37 103.99-154.93 190.93-187.48 83.11-31.02 178.29-25.85 258.15 14.36 20.3 10.15 51.52 31.41 70.28 48.07 51.52 45.58 90.01 112.41 102.65 177.72 1.72 9 3.64 18.19 4.02 20.49.77 3.64-.19 4.6-7.09 6.51-12.25 3.26-25.47 17.43-28.34 30.64-1.53 7.47-1.92 45.96-1.53 137.69.57 141.71-.19 132.9 13.98 145.35l6.89 5.94-7.28 13.98c-8.42 15.9-28.53 38.11-45.77 50.37-15.7 11.11-47.49 26.24-68.18 32.17-20.68 5.94-52.09 10.72-71.05 10.72h-14.36l-6.13-9.58c-8.81-13.79-21.64-24.51-33.9-27.96-8.23-2.49-19.72-2.87-64.15-2.3l-54.2.58-10.92 5.36c-20.49 10.15-32.17 29.88-32.17 54.96 0 25.09 11.68 44.81 32.17 54.96l10.92 5.36 54.2.57c44.43.58 55.92.19 64.15-2.3 12.06-3.45 25.09-14.17 33.7-27.77l6.13-9.38 18.58-1.34c73.92-4.79 130.61-24.32 175.42-60.51 24.51-19.54 46.73-50.18 54.58-74.88 2.11-6.51 3.06-7.27 13.21-9.38 39.07-8.04 77.56-34.47 100.54-69.32 29.88-44.81 36-102.26 16.66-152.06-11.3-29.49-35.43-60.13-59.75-76.22-10.53-6.89-11.11-7.66-11.11-14.94 0-12.45-5.55-46.92-11.49-70.47-24.32-97.67-86.37-184.61-172.35-241.68-36.58-24.32-89.05-47.11-130.22-56.69-34.27-7.84-85.97-12.63-116.8-10.52z"/></symbol><symbol viewBox="0 0 24 28" id="play-circle-o" xmlns="http://www.w3.org/2000/svg"><path d="M18.5 14a.97.97 0 0 1-.5.859l-8.5 5c-.156.094-.328.141-.5.141s-.344-.047-.5-.125A1.015 1.015 0 0 1 8 19V9c0-.359.187-.688.5-.875a.993.993 0 0 1 1 .016l8.5 5c.313.172.5.5.5.859zm2 0c0-4.688-3.813-8.5-8.5-8.5S3.5 9.313 3.5 14s3.813 8.5 8.5 8.5 8.5-3.813 8.5-8.5zm3.5 0c0 6.625-5.375 12-12 12S0 20.625 0 14 5.375 2 12 2s12 5.375 12 12z"/></symbol><symbol viewBox="0 0 26 28" id="search" xmlns="http://www.w3.org/2000/svg"><path d="M18 13c0-3.859-3.141-7-7-7s-7 3.141-7 7 3.141 7 7 7 7-3.141 7-7zm8 13c0 1.094-.906 2-2 2a1.96 1.96 0 0 1-1.406-.594l-5.359-5.344a10.971 10.971 0 0 1-6.234 1.937c-6.078 0-11-4.922-11-11s4.922-11 11-11 11 4.922 11 11c0 2.219-.672 4.406-1.937 6.234l5.359 5.359c.359.359.578.875.578 1.406z"/></symbol><symbol viewBox="0 0 24 28" id="sign-in" xmlns="http://www.w3.org/2000/svg"><path d="M18.5 14a.99.99 0 0 1-.297.703l-8.5 8.5A.996.996 0 0 1 9 23.5c-.547 0-1-.453-1-1V18H1c-.547 0-1-.453-1-1v-6c0-.547.453-1 1-1h7V5.5c0-.547.453-1 1-1a.99.99 0 0 1 .703.297l8.5 8.5A.996.996 0 0 1 18.5 14zM24 8.5v11c0 2.484-2.016 4.5-4.5 4.5h-5a.514.514 0 0 1-.5-.5c0-.438-.203-1.5.5-1.5h5c1.375 0 2.5-1.125 2.5-2.5v-11C22 7.125 20.875 6 19.5 6H15c-.391 0-1 .078-1-.5 0-.438-.203-1.5.5-1.5h5C21.984 4 24 6.016 24 8.5z"/></symbol><symbol viewBox="0 0 24 28" id="times-circle" xmlns="http://www.w3.org/2000/svg"><path d="M17.953 17.531a.99.99 0 0 0-.297-.703L14.828 14l2.828-2.828a.996.996 0 0 0 0-1.422L16.25 8.344c-.187-.187-.453-.297-.719-.297s-.516.109-.703.297L12 11.172 9.172 8.344a.996.996 0 0 0-1.422 0L6.344 9.75c-.187.187-.297.453-.297.719s.109.516.297.703L9.172 14l-2.828 2.828a.996.996 0 0 0 0 1.422l1.406 1.406c.187.187.453.297.719.297s.516-.109.703-.297L12 16.828l2.828 2.828a.996.996 0 0 0 1.422 0l1.406-1.406c.187-.187.297-.453.297-.719zM24 14c0 6.625-5.375 12-12 12S0 20.625 0 14 5.375 2 12 2s12 5.375 12 12z"/></symbol><symbol viewBox="0 0 26 28" id="twitter" xmlns="http://www.w3.org/2000/svg"><path d="M25.312 6.375a10.85 10.85 0 0 1-2.531 2.609c.016.219.016.438.016.656 0 6.672-5.078 14.359-14.359 14.359-2.859 0-5.516-.828-7.75-2.266.406.047.797.063 1.219.063 2.359 0 4.531-.797 6.266-2.156a5.056 5.056 0 0 1-4.719-3.5c.313.047.625.078.953.078.453 0 .906-.063 1.328-.172a5.048 5.048 0 0 1-4.047-4.953v-.063a5.093 5.093 0 0 0 2.281.641 5.044 5.044 0 0 1-2.25-4.203c0-.938.25-1.797.688-2.547a14.344 14.344 0 0 0 10.406 5.281 5.708 5.708 0 0 1-.125-1.156 5.045 5.045 0 0 1 5.047-5.047 5.03 5.03 0 0 1 3.687 1.594 9.943 9.943 0 0 0 3.203-1.219 5.032 5.032 0 0 1-2.219 2.781c1.016-.109 2-.391 2.906-.781z"/></symbol><symbol viewBox="0 0 31 28" id="vk" xmlns="http://www.w3.org/2000/svg"><path d="M29.953 8.125c.234.641-.5 2.141-2.344 4.594-3.031 4.031-3.359 3.656-.859 5.984 2.406 2.234 2.906 3.313 2.984 3.453 0 0 1 1.75-1.109 1.766l-4 .063c-.859.172-2-.609-2-.609-1.5-1.031-2.906-3.703-4-3.359 0 0-1.125.359-1.094 2.766.016.516-.234.797-.234.797s-.281.297-.828.344h-1.797c-3.953.25-7.438-3.391-7.438-3.391S3.421 16.595.078 8.736c-.219-.516.016-.766.016-.766s.234-.297.891-.297l4.281-.031c.406.063.688.281.688.281s.25.172.375.5c.703 1.75 1.609 3.344 1.609 3.344 1.563 3.219 2.625 3.766 3.234 3.437 0 0 .797-.484.625-4.375-.063-1.406-.453-2.047-.453-2.047-.359-.484-1.031-.625-1.328-.672-.234-.031.156-.594.672-.844.766-.375 2.125-.391 3.734-.375 1.266.016 1.625.094 2.109.203 1.484.359.984 1.734.984 5.047 0 1.062-.203 2.547.562 3.031.328.219 1.141.031 3.141-3.375 0 0 .938-1.625 1.672-3.516.125-.344.391-.484.391-.484s.25-.141.594-.094l4.5-.031c1.359-.172 1.578.453 1.578.453z"/></symbol><symbol viewBox="0 0 28 28" id="youtube-play" xmlns="http://www.w3.org/2000/svg"><path d="M11.109 17.625l7.562-3.906-7.562-3.953v7.859zM14 4.156c5.891 0 9.797.281 9.797.281.547.063 1.75.063 2.812 1.188 0 0 .859.844 1.109 2.781.297 2.266.281 4.531.281 4.531v2.125s.016 2.266-.281 4.531c-.25 1.922-1.109 2.781-1.109 2.781-1.062 1.109-2.266 1.109-2.812 1.172 0 0-3.906.297-9.797.297-7.281-.063-9.516-.281-9.516-.281-.625-.109-2.031-.078-3.094-1.188 0 0-.859-.859-1.109-2.781C-.016 17.327 0 15.062 0 15.062v-2.125s-.016-2.266.281-4.531C.531 6.469 1.39 5.625 1.39 5.625 2.452 4.5 3.656 4.5 4.202 4.437c0 0 3.906-.281 9.797-.281z"/></symbol></svg>